<svg id="visual" viewBox="0 0 960 540" width="960" height="540" xmlns="http://www.w3.org/2000/svg" xmlns:xlink="http://www.w3.org/1999/xlink" version="1.1"><rect x="0" y="0" width="960" height="540" fill="#013371"></rect><defs><linearGradient id="grad1_0" x1="43.8%" y1="0%" x2="100%" y2="100%"><stop offset="14.444444444444446%" stop-color="#013371" stop-opacity="1"></stop><stop offset="85.55555555555554%" stop-color="#013371" stop-opacity="1"></stop></linearGradient></defs><defs><linearGradient id="grad2_0" x1="0%" y1="0%" x2="56.3%" y2="100%"><stop offset="14.444444444444446%" stop-color="#013371" stop-opacity="1"></stop><stop offset="85.55555555555554%" stop-color="#013371" stop-opacity="1"></stop></linearGradient></defs><g transform="translate(960, 0)"><path d="M0 432C-44.9 429.2 -89.8 426.3 -133.5 410.9C-177.2 395.4 -219.7 367.3 -237.5 326.8C-255.3 286.4 -248.4 233.6 -279.1 202.8C-309.8 172 -378.2 163.3 -409.9 133.2C-441.7 103.1 -436.8 51.5 -432 0L0 0Z" fill="#bd1313"></path></g><g transform="translate(0, 540)"><path d="M0 -432C46 -425.5 91.9 -419.1 129.8 -399.4C167.7 -379.8 197.4 -347 234.5 -322.8C271.6 -298.6 316 -282.9 347.9 -252.7C379.7 -222.6 398.9 -178 410.9 -133.5C422.8 -89 427.4 -44.5 432 0L0 0Z" fill="#bd1313"></path></g></svg>